HIERARCHY
ROOT Hips
{
 OFFSET 0.000000 0.000000 0.000000
 CHANNELS 6 Xposition Yposition Zposition Yrotation Xrotation Zrotation
 JOINT Chest
 {
  OFFSET 0.000000 12.953391 -0.028419
  CHANNELS 3 Yrotation Xrotation Zrotation
  JOINT Chest2
  {
   OFFSET 0.000000 10.280254 0.051622
   CHANNELS 3 Yrotation Xrotation Zrotation
   JOINT Chest3
   {
    OFFSET 0.000000 9.287180 0.000000
    CHANNELS 3 Yrotation Xrotation Zrotation
    JOINT Chest4
    {
     OFFSET 0.000000 9.287180 0.000000
     CHANNELS 3 Yrotation Xrotation Zrotation
     JOINT Neck
     {
      OFFSET 0.000000 13.296264 0.000000
      CHANNELS 3 Yrotation Xrotation Zrotation
      JOINT Head
      {
       OFFSET 0.000000 8.959264 0.099003
       CHANNELS 3 Yrotation Xrotation Zrotation
       End Site
       {
        OFFSET 0.000000 17.121337 0.039303
       }
      }
     }
     JOINT RightCollar
     {
      OFFSET -3.193511 7.451388 0.000000
      CHANNELS 3 Yrotation Xrotation Zrotation
      JOINT RightShoulder
      {
       OFFSET -15.792092 0.000000 0.000000
       CHANNELS 3 Yrotation Xrotation Zrotation
       JOINT RightElbow
       {
        OFFSET -31.151839 0.000000 0.000000
        CHANNELS 3 Yrotation Xrotation Zrotation
        JOINT RightWrist
        {
         OFFSET -25.536298 0.000000 0.002321
         CHANNELS 3 Yrotation Xrotation Zrotation
         End Site
         {
          OFFSET -19.133213 0.000000 0.000000
         }
        }
       }
      }
     }
     JOINT LeftCollar
     {
      OFFSET 3.193511 7.451388 0.000000
      CHANNELS 3 Yrotation Xrotation Zrotation
      JOINT LeftShoulder
      {
       OFFSET 15.792092 0.000000 0.000000
       CHANNELS 3 Yrotation Xrotation Zrotation
       JOINT LeftElbow
       {
        OFFSET 31.151839 0.000000 0.000000
        CHANNELS 3 Yrotation Xrotation Zrotation
        JOINT LeftWrist
        {
         OFFSET 25.536298 0.000000 0.002321
         CHANNELS 3 Yrotation Xrotation Zrotation
         End Site
         {
          OFFSET 19.133213 0.000000 0.000000
         }
        }
       }
      }
     }
    }
   }
  }
 }
 JOINT RightHip
 {
  OFFSET -10.745749 0.139252 0.014209
  CHANNELS 3 Yrotation Xrotation Zrotation
  JOINT RightKnee
  {
   OFFSET 0.000000 -43.743899 -0.006071
   CHANNELS 3 Yrotation Xrotation Zrotation
   JOINT RightAnkle
   {
    OFFSET 0.000000 -43.214199 0.089931
    CHANNELS 3 Yrotation Xrotation Zrotation
    JOINT RightToe
    {
     OFFSET 0.000000 -9.699830 19.151588
     CHANNELS 3 Yrotation Xrotation Zrotation
     End Site
     {
      OFFSET 0.000000 -1.292898 4.893873
     }
    }
   }
  }
 }
 JOINT LeftHip
 {
  OFFSET 10.745749 0.139252 0.014209
  CHANNELS 3 Yrotation Xrotation Zrotation
  JOINT LeftKnee
  {
   OFFSET 0.000000 -43.743899 -0.006071
   CHANNELS 3 Yrotation Xrotation Zrotation
   JOINT LeftAnkle
   {
    OFFSET 0.000000 -43.214199 0.089931
    CHANNELS 3 Yrotation Xrotation Zrotation
    JOINT LeftToe
    {
     OFFSET 0.000000 -9.699830 19.151588
     CHANNELS 3 Yrotation Xrotation Zrotation
     End Site
     {
      OFFSET 0.000000 -1.292898 4.893873
     }
    }
   }
  }
 }
}
MOTION
Frames: 9
Frame Time: 0.016667
49.194981 101.307155 444.777391 73.762189 -2.633748 8.394871 -6.120183 8.716559 2.266127 -2.754660 3.844001 1.119409 -2.754660 3.844001 1.119409 -2.072278 2.878038 0.856611 -11.271200 27.280400 4.704957 -21.029384 15.945947 10.612592 14.939699 4.598639 3.823822 12.432872 -23.989337 55.626956 1.055123 9.668968 -11.414212 -16.949859 18.175280 -22.683080 -6.103518 5.242475 -5.787382 -11.519596 -11.748663 -75.610948 -9.713888 7.680923 0.666454 14.655416 13.088799 13.450308 -13.065559 3.166402 -3.925708 -1.653611 -1.631860 0.008710 -14.814636 2.262973 -0.074646 -0.000000 0.000000 -0.000000 22.018407 -8.307598 8.895011 -0.065259 22.896748 -0.922626 -2.593534 10.684305 -6.851577 0.000000 -0.000000 -0.000000
49.248043 101.300574 444.632241 73.680112 -2.536182 8.432695 -6.050027 8.673269 2.276301 -2.723629 3.824975 1.122058 -2.723629 3.824976 1.122060 -2.049001 2.863814 0.858323 -11.302235 27.242525 4.677986 -21.082886 15.876241 10.576462 14.741688 4.596213 3.798375 11.929841 -23.748988 56.412141 2.144649 10.022578 -11.639389 -16.468582 18.078680 -24.983389 -6.211633 5.165624 -5.802674 -11.288122 -11.851406 -75.712255 -10.143678 7.871935 0.966058 14.653476 13.072569 13.481447 -13.173481 3.038949 -4.100446 -1.792502 -1.608782 0.155207 -14.495402 2.222786 -0.134499 0.000000 -0.000000 -0.000000 21.707844 -8.280346 8.828602 0.773352 23.369296 -0.012634 -2.257034 11.278076 -7.056100 -0.000000 -0.000000 0.000000
49.301105 101.293993 444.487092 73.598105 -2.438562 8.470376 -5.979858 8.630014 2.286386 -2.692587 3.805969 1.124681 -2.692586 3.805970 1.124683 -2.025717 2.849602 0.860013 -11.333241 27.204654 4.650999 -21.136332 15.806535 10.540322 14.543683 4.593615 3.772897 11.431298 -23.500851 57.192853 3.232862 10.388809 -11.853467 -15.980256 18.030351 -27.282226 -6.319675 5.088698 -5.817907 -11.056265 -11.953689 -75.813700 -10.574092 8.065684 1.262168 14.651593 13.056571 13.512722 -13.281224 2.910854 -4.274554 -1.931336 -1.584478 0.301495 -14.176123 2.182520 -0.194293 0.000000 0.000000 -0.000000 21.397119 -8.253911 8.762377 1.622443 23.835123 0.904099 -1.930708 11.878589 -7.257119 0.000000 -0.000000 0.000000
49.359843 101.281469 444.332877 73.535317 -2.360387 8.479807 -5.921633 8.595424 2.292164 -2.666782 3.790812 1.125733 -2.666782 3.790812 1.125733 -2.006355 2.838275 0.860574 -11.358414 27.161828 4.625707 -21.180238 15.727083 10.506920 14.315464 4.617728 3.780536 10.938932 -23.229995 57.980363 4.463512 10.975638 -11.981525 -15.525777 17.889951 -29.174960 -6.439226 5.021002 -5.835268 -10.857151 -12.041463 -75.895712 -11.001664 8.192359 1.552218 14.621728 12.981325 13.549362 -13.316334 2.815775 -4.418689 -2.094182 -1.567875 0.427505 -13.925272 2.143576 -0.241711 0.000000 -0.000000 0.000000 21.155043 -8.201040 8.747586 2.316412 24.229733 1.725061 -1.600892 12.446617 -7.424144 -0.000000 0.000000 -0.000000
49.426615 101.260449 444.167855 73.501915 -2.306989 8.450653 -5.881430 8.572502 2.291141 -2.648873 3.780839 1.124254 -2.648873 3.780839 1.124253 -1.992905 2.830833 0.859310 -11.376048 27.108853 4.604537 -21.212477 15.628540 10.481076 14.032448 4.679647 3.838900 10.415206 -22.932313 58.786045 5.957911 11.980414 -11.992462 -15.140404 17.490573 -30.548939 -6.581637 4.964843 -5.853517 -10.704647 -12.099746 -75.949406 -11.440911 8.197482 1.842553 14.534083 12.783026 13.599562 -13.241231 2.769181 -4.519434 -2.294709 -1.570014 0.522926 -13.776732 2.108419 -0.271052 0.000000 -0.000000 0.000000 21.007280 -8.107840 8.801071 2.773530 24.520721 2.414901 -1.234503 13.004859 -7.559881 -0.000000 0.000000 0.000000
49.499064 101.233484 443.993768 73.487629 -2.273105 8.393384 -5.853204 8.558182 2.285883 -2.636220 3.774681 1.121229 -2.636220 3.774681 1.121229 -1.983391 2.826250 0.856938 -11.387927 27.050925 4.585077 -21.235227 15.520250 10.458037 13.719454 4.769357 3.929997 9.900400 -22.609047 59.596479 7.593878 13.205989 -11.893768 -14.797869 16.976950 -31.536477 -6.735662 4.918145 -5.873906 -10.585291 -12.144137 -75.983376 -11.877281 8.136443 2.130577 14.419561 12.525395 13.657609 -13.093698 2.756235 -4.590911 -2.519364 -1.580403 0.598263 -13.696677 2.074573 -0.288015 0.000000 0.000000 0.000000 20.928752 -7.987166 8.905614 3.069039 24.745777 3.003822 -0.860701 13.528899 -7.663168 -0.000000 0.000000 0.000000
49.575796 101.202287 443.806781 73.480916 -2.262386 8.311156 -5.830748 8.551956 2.279796 -2.626135 3.772102 1.118043 -2.626135 3.772102 1.118043 -1.975807 2.824348 0.854478 -11.393470 26.998667 4.561786 -21.245418 15.420484 10.426193 13.420361 4.882082 4.033490 9.513385 -22.255852 60.386274 9.147908 14.267842 -11.682495 -14.449614 16.663535 -32.094380 -6.878997 4.883641 -5.902406 -10.491405 -12.206707 -76.004163 -12.263173 8.103921 2.400134 14.340783 12.340173 13.706472 -12.914400 2.765440 -4.645376 -2.751329 -1.575834 0.664634 -13.652039 2.035967 -0.297371 -0.000000 0.000000 0.000000 20.912349 -7.851360 9.061182 3.270383 24.947341 3.485919 -0.554359 13.905886 -7.699766 0.000000 0.000000 0.000000
49.657859 101.167174 443.608277 73.467487 -2.277209 8.204174 -5.810954 8.556744 2.273542 -2.617263 3.774407 1.114964 -2.617263 3.774407 1.114964 -1.969139 2.826105 0.852124 -11.390494 26.953796 4.533252 -21.238723 15.331729 10.382380 13.144212 5.025558 4.145683 9.318059 -21.862874 61.143205 10.598804 15.036269 -11.376399 -14.095014 16.679028 -32.166455 -7.004344 4.866068 -5.939830 -10.421756 -12.303845 -76.011286 -12.576373 8.143131 2.647456 14.328904 12.287780 13.740957 -12.685411 2.797188 -4.681596 -2.996070 -1.547830 0.722114 -13.642624 1.989906 -0.303255 0.000000 -0.000000 0.000000 20.983863 -7.698880 9.277176 3.354046 25.142075 3.842643 -0.324833 14.052213 -7.641619 0.000000 0.000000 0.000000
49.744206 101.127828 443.396873 73.461752 -2.315197 8.072240 -5.796875 8.569625 2.266491 -2.610934 3.780289 1.111732 -2.610934 3.780289 1.111732 -1.964383 2.830542 0.849685 -11.381147 26.914535 4.500933 -21.219358 15.251416 10.329861 12.882415 5.192417 4.269898 9.251517 -21.445917 61.880711 11.968080 15.638319 -10.981184 -13.728303 16.863046 -31.789199 -7.118940 4.860691 -5.985512 -10.377942 -12.419117 -76.005119 -12.838253 8.209925 2.875499 14.351566 12.307835 13.763493 -12.424491 2.850630 -4.700182 -3.247951 -1.504890 0.770472 -13.668704 1.939221 -0.301588 -0.000000 0.000000 -0.000000 21.118269 -7.532515 9.544631 3.340970 25.314212 4.091989 -0.155954 14.046901 -7.519836 0.000000 0.000000 0.000000
